<?xml version="1.0" encoding="UTF-8" standalone="no"?>
<svg
   xmlns:dc="http://purl.org/dc/elements/1.1/"
   xmlns:cc="http://creativecommons.org/ns#"
   xmlns:rdf="http://www.w3.org/1999/02/22-rdf-syntax-ns#"
   xmlns:svg="http://www.w3.org/2000/svg"
   xmlns="http://www.w3.org/2000/svg"
   xmlns:sodipodi="http://sodipodi.sourceforge.net/DTD/sodipodi-0.dtd"
   xmlns:inkscape="http://www.inkscape.org/namespaces/inkscape"
   inkscape:version="1.0 (4035a4fb49, 2020-05-01)"
   sodipodi:docname="background_middle.svg"
   id="svg846"
   version="1.1"
   fill="none"
   viewBox="0 0 1440 880"
   height="880"
   width="1440">
  <metadata
     id="metadata850">
    <rdf:RDF>
      <cc:Work
         rdf:about="">
        <dc:format>image/svg+xml</dc:format>
        <dc:type
           rdf:resource="http://purl.org/dc/dcmitype/StillImage" />
        <dc:title></dc:title>
      </cc:Work>
    </rdf:RDF>
  </metadata>
  <sodipodi:namedview
     inkscape:current-layer="svg846"
     inkscape:window-maximized="1"
     inkscape:window-y="-8"
     inkscape:window-x="1912"
     inkscape:cy="456.51569"
     inkscape:cx="701.12037"
     inkscape:zoom="0.7051426"
     showgrid="false"
     id="namedview848"
     inkscape:window-height="1057"
     inkscape:window-width="1920"
     inkscape:pageshadow="2"
     inkscape:pageopacity="0"
     guidetolerance="10"
     gridtolerance="10"
     objecttolerance="10"
     borderopacity="1"
     bordercolor="#666666"
     pagecolor="#ffffff" />
  <g
     id="g28"
     opacity="0.3">
    <rect
       id="rect6"
       fill="url(#paint1_linear)"
       height="9.23538"
       width="12.5044"
       y="187.375"
       x="833.321" />
    <rect
       id="rect8"
       fill="url(#paint2_linear)"
       height="30.8908"
       width="12.5044"
       y="165.72"
       x="854.696" />
    <rect
       id="rect10"
       fill="url(#paint3_linear)"
       height="23.8846"
       width="12.5044"
       y="172.726"
       x="876.177" />
    <rect
       id="rect12"
       fill="url(#paint4_linear)"
       height="53.1831"
       width="12.5044"
       y="143.428"
       x="897.659" />
    <rect
       id="rect14"
       fill="url(#paint5_linear)"
       height="60.5077"
       width="12.5044"
       y="136.103"
       x="919.141" />
    <rect
       id="rect16"
       fill="url(#paint6_linear)"
       height="71.5477"
       width="12.5044"
       y="125.063"
       x="940.516" />
    <rect
       id="rect18"
       fill="url(#paint7_linear)"
       height="57.5354"
       width="12.5044"
       y="139.075"
       x="961.998" />
    <rect
       id="rect20"
       fill="url(#paint8_linear)"
       height="62.3123"
       width="12.5044"
       y="134.298"
       x="983.48" />
    <rect
       id="rect22"
       fill="url(#paint9_linear)"
       height="90.8677"
       width="12.5044"
       y="105.743"
       x="1004.85" />
    <rect
       id="rect24"
       fill="url(#paint10_linear)"
       height="83.3308"
       width="12.5044"
       y="113.28"
       x="1026.34" />
    <rect
       id="rect26"
       fill="url(#paint11_linear)"
       height="114.54"
       width="12.5044"
       y="82.0708"
       x="1047.82" />
  </g>
  <rect
     id="rect30"
     fill="#ffffff"
     height="37.216202"
     width="119.435"
     y="290.91599"
     x="1201.3199"
     opacity="0.3" />
  <rect
     id="rect32"
     fill="#5DCFCA"
     height="37.2162"
     width="119.435"
     y="380.214"
     x="1201.32" />
  <rect
     id="rect34"
     fill="white"
     height="37.216202"
     width="119.435"
     y="246.321"
     x="1201.3199"
     opacity="0.3" />
  <path
     id="path36"
     fill="white"
     d="M1291.53 300.755C1296.51 295.729 1304.45 295.729 1309.42 300.755C1314.29 305.674 1314.29 313.802 1309.42 318.828C1304.45 323.855 1296.51 323.855 1291.53 318.828C1286.55 313.802 1286.55 305.781 1291.53 300.755ZM1304.98 314.337C1305.72 313.588 1305.72 312.519 1304.98 311.77L1302.96 309.738L1304.98 307.706C1305.72 306.958 1305.72 305.888 1304.98 305.14C1304.24 304.391 1303.18 304.391 1302.44 305.14L1300.42 307.171L1298.41 305.14C1297.67 304.391 1296.61 304.391 1295.87 305.14C1295.13 305.888 1295.13 306.958 1295.87 307.706L1297.88 309.738L1295.87 311.77C1295.13 312.519 1295.13 313.588 1295.87 314.337C1296.19 314.657 1296.72 314.871 1297.14 314.871C1297.56 314.871 1298.09 314.657 1298.41 314.337L1300.42 312.305L1302.44 314.337C1302.75 314.657 1303.28 314.871 1303.71 314.871C1304.13 314.871 1304.66 314.657 1304.98 314.337Z"
     clip-rule="evenodd"
     fill-rule="evenodd" />
  <path
     id="path38"
     fill="white"
     d="M1291.53 256.16C1296.51 251.133 1304.45 251.133 1309.42 256.16C1314.29 261.079 1314.29 269.207 1309.42 274.233C1304.45 279.259 1296.51 279.259 1291.53 274.233C1286.55 269.207 1286.55 261.186 1291.53 256.16ZM1300.42 269.848L1307.09 261.614C1307.73 260.865 1307.62 259.689 1306.78 259.047C1306.04 258.405 1304.87 258.512 1304.24 259.261L1298.84 265.998L1297.25 264.287C1296.61 263.539 1295.45 263.539 1294.71 264.18C1293.96 264.822 1293.96 265.998 1294.6 266.747L1297.67 269.955C1297.99 270.276 1298.41 270.49 1298.94 270.49H1299.05C1299.58 270.49 1300.11 270.276 1300.42 269.848Z"
     clip-rule="evenodd"
     fill-rule="evenodd" />
  <path
     id="path40"
     fill="white"
     d="M1294.39 404.062H1307.73C1308.47 404.062 1309 403.634 1309.11 402.992L1311.65 393.688C1311.86 393.261 1311.75 392.833 1311.44 392.405C1311.22 391.977 1310.69 391.763 1310.27 391.763H1291.74C1291.32 391.763 1290.89 392.084 1290.58 392.405C1290.36 392.726 1290.26 393.261 1290.36 393.688L1292.91 402.992C1293.12 403.634 1293.75 404.062 1294.39 404.062ZM1306.67 401.067H1295.55L1293.75 394.758H1308.36L1306.67 401.067Z"
     clip-rule="evenodd"
     fill-rule="evenodd" />
  <path
     id="path42"
     fill="white"
     d="M1294.39 404.062C1293.75 404.062 1293.12 403.634 1292.91 402.992L1289.73 391.122L1286.98 391.015C1286.13 391.015 1285.49 390.266 1285.6 389.411C1285.6 388.555 1286.34 387.913 1287.19 388.02L1291 388.234C1291.64 388.234 1292.16 388.662 1292.38 389.304L1295.87 402.244C1296.08 402.992 1295.66 403.848 1294.81 404.062C1294.6 404.062 1294.49 404.062 1294.39 404.062Z" />
  <path
     id="path44"
     fill="white"
     d="M1293.44 406.735C1293.44 408.553 1294.92 410.051 1296.72 410.051C1298.52 410.051 1300 408.553 1300 406.735C1300 405.024 1298.52 403.527 1296.72 403.527C1294.92 403.527 1293.44 404.917 1293.44 406.735ZM1296.51 406.735C1296.51 406.628 1296.61 406.522 1296.72 406.522C1296.93 406.522 1297.04 406.628 1297.04 406.735C1297.04 407.056 1296.51 407.056 1296.51 406.735Z"
     clip-rule="evenodd"
     fill-rule="evenodd" />
  <path
     id="path46"
     fill="white"
     d="M1301.8 406.735C1301.8 408.553 1303.28 410.051 1305.08 410.051C1306.88 410.051 1308.26 408.553 1308.36 406.735C1308.36 405.024 1306.88 403.527 1305.08 403.527C1303.28 403.527 1301.8 404.917 1301.8 406.735ZM1304.87 406.735C1304.87 406.628 1304.98 406.522 1305.08 406.522C1305.19 406.522 1305.29 406.628 1305.4 406.735C1305.4 407.056 1304.87 407.056 1304.87 406.735Z"
     clip-rule="evenodd"
     fill-rule="evenodd" />
  <path
     id="path48"
     fill="white"
     d="M1271.62 266.319H1216.04C1215.08 266.319 1214.24 265.464 1214.24 264.501C1214.24 263.539 1215.08 262.683 1216.04 262.683H1271.62C1272.58 262.683 1273.42 263.539 1273.42 264.501C1273.42 265.464 1272.68 266.319 1271.62 266.319Z" />
  <path
     id="path50"
     fill="white"
     d="M1271.62 310.914H1216.04C1215.08 310.914 1214.24 310.059 1214.24 309.096C1214.24 308.134 1215.08 307.278 1216.04 307.278H1271.62C1272.58 307.278 1273.42 308.134 1273.42 309.096C1273.42 310.166 1272.68 310.914 1271.62 310.914Z" />
  <rect
     id="rect52"
     fill="#ffffff"
     height="37.216202"
     width="119.435"
     y="335.51099"
     x="1201.3199"
     opacity="0.3" />
  <path
     id="path54"
     fill="white"
     d="M1291.53 345.35C1296.51 340.324 1304.45 340.324 1309.42 345.35C1314.29 350.376 1314.29 358.397 1309.42 363.423C1304.45 368.45 1296.51 368.45 1291.53 363.423C1286.55 358.397 1286.55 350.376 1291.53 345.35ZM1300.42 359.039L1307.09 350.804C1307.73 350.056 1307.62 348.879 1306.78 348.344C1306.04 347.703 1304.87 347.81 1304.24 348.558L1298.84 355.189L1297.25 353.478C1296.51 352.729 1295.45 352.729 1294.71 353.371C1293.96 354.012 1293.96 355.189 1294.6 355.937L1297.67 359.146C1297.99 359.467 1298.41 359.68 1298.94 359.68H1299.05C1299.58 359.68 1300.11 359.467 1300.42 359.039Z"
     clip-rule="evenodd"
     fill-rule="evenodd" />
  <path
     style="fill:#ffffff;stroke:#ffffff;stroke-opacity:1"
     id="path56"
     fill="white"
     d="M1271.62 355.51H1216.04C1215.08 355.51 1214.24 354.654 1214.24 353.692C1214.24 352.729 1215.08 351.874 1216.04 351.874H1271.62C1272.58 351.874 1273.42 352.729 1273.42 353.692C1273.42 354.761 1272.68 355.51 1271.62 355.51Z" />
  <path
     id="path58"
     fill="white"
     d="M1271.62 400.212H1216.04C1215.08 400.212 1214.24 399.356 1214.24 398.394C1214.24 397.431 1215.08 396.576 1216.04 396.576H1271.62C1272.58 396.576 1273.42 397.431 1273.42 398.394C1273.42 399.356 1272.68 400.212 1271.62 400.212Z" />
  <rect
     id="rect384"
     fill="#F3F3F3"
     height="231.68"
     width="223.467"
     y="453.107"
     x="1025.32" />
  <rect
     id="rect386"
     fill="#CDD5D7"
     height="18.0267"
     width="223.467"
     y="453.107"
     x="1025.32" />
  <path
     id="path388"
     stroke-width="10.826"
     stroke="#879BA6"
     d="M1031.19 461.96H1036.41" />
  <path
     id="path390"
     stroke-width="10.826"
     stroke="#879BA6"
     d="M1041.43 461.96H1046.65" />
  <path
     id="path392"
     stroke-width="10.826"
     stroke="#879BA6"
     d="M1051.56 461.96H1056.79" />
  <rect
     id="rect394"
     fill="#3DC7C9"
     height="23.7867"
     width="23.7867"
     y="484.36"
     x="1040.04" />
  <path
     id="path396"
     fill="#D8E5ED"
     d="M1073.32 493H1159.51H1073.32Z" />
  <path
     id="path398"
     stroke-width="7.2174"
     stroke="#B5D1DE"
     d="M1073.32 493H1159.51" />
  <path
     id="path400"
     fill="#D8E5ED"
     d="M1073.32 501.747H1135.72H1073.32Z" />
  <path
     id="path402"
     stroke-width="7.2174"
     stroke="#B5D1DE"
     d="M1073.32 501.747H1135.72" />
  <path
     id="path408"
     stroke-width="7.2174"
     stroke="#D8E5ED"
     d="M1087.83 600.947H1107.03" />
  <path
     id="path412"
     stroke-width="7.2174"
     stroke="#D8E5ED"
     d="M1126.55 600.947H1145.75" />
  <path
     id="path414"
     stroke-width="7.2174"
     stroke="#D8E5ED"
     d="M1116.2 600.947H1121.75" />
  <rect
     id="rect416"
     fill="#D0DEE6"
     height="78.9333"
     width="195.627"
     y="513.907"
     x="1040.04" />
  <path
     id="path420"
     fill="#D8E5ED"
     d="M1073.32 624.093H1159.51H1073.32Z" />
  <path
     id="path422"
     stroke-width="7.2174"
     stroke="#B5D1DE"
     d="M1073.32 624.093H1159.51" />
  <path
     id="path424"
     stroke-width="7.2174"
     stroke="#D8E5ED"
     d="M1040.04 647.133H1232.89" />
  <path
     id="path426"
     stroke-width="7.2174"
     stroke="#D8E5ED"
     d="M1040.04 655.667H1232.89" />
  <path
     id="path428"
     stroke-width="7.2174"
     stroke="#D8E5ED"
     d="M1040.04 664.093H1222.65" />
  <path
     id="path430"
     fill="#D8E5ED"
     d="M1073.32 632.84H1135.72H1073.32Z" />
  <path
     id="path432"
     stroke-width="7.2174"
     stroke="#B5D1DE"
     d="M1073.32 632.84H1135.72" />
  <rect
     id="rect434"
     fill="url(#paint13_linear)"
     height="31.5733"
     width="65.7136"
     y="527.213"
     x="1202.75" />
  <path
     id="path436"
     fill="white"
     d="M1236.84 540.76C1238.13 540.76 1239.2 541.08 1239.95 541.827C1240.7 542.574 1241.13 543.534 1241.13 544.814C1241.13 546.307 1240.7 547.48 1239.73 548.334C1238.77 549.187 1237.48 549.614 1235.66 549.614C1234.16 549.614 1232.87 549.4 1232.02 548.867V546.414C1232.55 546.627 1233.09 546.84 1233.73 547.054C1234.37 547.267 1235.02 547.267 1235.55 547.267C1237.27 547.267 1238.23 546.52 1238.23 545.134C1238.23 543.747 1237.27 543.107 1235.45 543.107C1235.12 543.107 1234.8 543.107 1234.37 543.214C1233.95 543.32 1233.62 543.32 1233.41 543.427L1232.23 542.787L1232.77 535.854H1240.16V538.307H1235.34L1235.12 540.974L1235.45 540.867C1235.77 540.867 1236.2 540.76 1236.84 540.76Z" />
  <path
     id="path438"
     fill="white"
     d="M1244.34 537.774C1243.16 539.054 1242.63 541.08 1242.63 543.747C1242.63 545.027 1242.84 546.094 1243.27 546.947C1243.7 547.8 1244.24 548.547 1244.99 548.974C1245.74 549.507 1246.7 549.72 1247.67 549.72C1249.17 549.72 1250.24 549.294 1251.1 548.44C1251.96 547.587 1252.38 546.52 1252.38 545.027C1252.38 543.64 1251.96 542.574 1251.31 541.827C1250.56 541.08 1249.6 540.654 1248.42 540.654C1247.02 540.654 1246.06 541.187 1245.42 542.254H1245.31C1245.31 541.187 1245.52 540.334 1245.84 539.8C1246.17 539.267 1246.6 538.84 1247.24 538.52C1247.88 538.2 1248.74 538.094 1249.7 538.094C1250.24 538.094 1250.78 538.2 1251.31 538.307V535.96C1250.88 535.854 1250.24 535.854 1249.49 535.854C1247.24 535.854 1245.52 536.494 1244.34 537.774ZM1248.95 546.734C1248.63 547.16 1248.2 547.374 1247.56 547.374C1247.02 547.374 1246.49 547.16 1246.06 546.52C1245.74 545.987 1245.52 545.347 1245.52 544.6C1245.52 544.174 1245.74 543.747 1246.17 543.32C1246.6 543 1247.13 542.787 1247.67 542.787C1248.31 542.787 1248.74 542.894 1249.06 543.32C1249.38 543.747 1249.49 544.28 1249.49 544.92C1249.49 545.774 1249.28 546.307 1248.95 546.734Z"
     clip-rule="evenodd"
     fill-rule="evenodd" />
  <path
     id="path440"
     fill="white"
     d="M1222.8 538.627C1221.51 537.347 1219.47 537.347 1218.19 538.627L1217.44 539.373L1216.69 538.627C1215.4 537.347 1213.36 537.347 1212.08 538.627C1210.79 539.907 1210.79 541.933 1212.08 543.213L1212.83 543.96L1217.44 548.547L1222.05 543.96L1222.8 543.213C1224.08 541.933 1224.08 539.907 1222.8 538.627Z" />
  <path
     id="path442"
     fill="#4E99FF"
     d="M1207.76 706.964H1123.43L1132.02 674.749H1216.36L1207.76 706.964Z" />
  <path
     id="path444"
     fill="white"
     d="M1162.86 697.546H1159.96L1162.1 689.519L1162.53 688.235L1162.96 686.843C1162.32 687.379 1161.89 687.7 1161.67 687.807L1159.74 689.091L1158.77 687.379L1164.25 683.847H1166.72L1162.86 697.546Z" />
  <path
     id="path446"
     fill="white"
     d="M1176.39 697.546H1166.62L1167.15 695.512L1171.56 691.981C1172.85 690.91 1173.71 690.161 1174.14 689.733C1174.57 689.305 1174.89 688.984 1175.1 688.556C1175.32 688.235 1175.53 687.807 1175.64 687.485C1175.75 686.95 1175.75 686.522 1175.53 686.201C1175.32 685.88 1174.89 685.773 1174.46 685.773C1173.92 685.773 1173.38 685.88 1172.74 686.094C1172.2 686.308 1171.56 686.736 1170.91 687.164L1169.84 685.238C1170.7 684.703 1171.34 684.275 1171.88 683.954C1172.42 683.739 1172.95 683.525 1173.49 683.418C1174.03 683.311 1174.67 683.204 1175.32 683.204C1176.18 683.204 1176.93 683.311 1177.47 683.632C1178 683.954 1178.43 684.382 1178.65 684.917C1178.86 685.452 1178.86 686.094 1178.65 686.843C1178.43 687.485 1178.22 688.128 1177.79 688.663C1177.36 689.198 1176.93 689.84 1176.28 690.375C1175.64 690.91 1174.57 691.767 1173.06 692.944L1170.81 694.656V694.763H1176.82L1176.39 697.546Z" />
  <path
     id="path448"
     fill="white"
     d="M1185.31 688.663C1186.71 688.663 1187.67 689.091 1188.21 689.84C1188.85 690.589 1188.96 691.659 1188.53 692.944C1188.1 694.442 1187.35 695.726 1186.17 696.476C1184.99 697.332 1183.48 697.76 1181.76 697.76C1180.26 697.76 1179.08 697.546 1178.22 697.011L1178.86 694.442C1179.29 694.656 1179.83 694.977 1180.47 695.084C1181.12 695.298 1181.66 695.298 1182.3 695.298C1184.13 695.298 1185.2 694.549 1185.63 693.051C1186.06 691.659 1185.31 690.91 1183.37 690.91C1183.05 690.91 1182.62 690.91 1182.19 691.017C1181.76 691.124 1181.44 691.124 1181.12 691.231L1180.15 690.589L1182.62 683.525H1190.14L1189.5 685.987H1184.56L1183.59 688.663L1183.91 688.556C1184.23 688.663 1184.66 688.663 1185.31 688.663Z" />
  <path
     id="path450"
     fill="white"
     d="M1201.1 697.546H1197.77L1195.73 691.659L1194.23 692.516L1192.94 697.439H1190.04L1193.8 683.525H1196.7L1194.98 689.84L1196.59 688.235L1201.64 683.525H1204.97L1198.41 689.626L1201.1 697.546Z" />
  <path
     id="path452"
     fill="white"
     d="M1150.82 687.7H1145.45C1145.88 687.057 1146.42 686.308 1146.53 685.987C1146.74 685.559 1146.85 684.703 1146.85 684.703C1147.06 683.954 1146.63 683.418 1145.88 683.418H1145.24L1144.7 685.345C1144.7 685.345 1141.8 687.914 1141.48 688.984L1139.87 695.191C1139.65 695.941 1140.08 696.476 1140.83 696.476H1145.24C1145.99 696.476 1146.85 695.941 1147.28 695.191L1151.15 688.984C1151.79 688.235 1151.58 687.7 1150.82 687.7Z" />
  <path
     id="path454"
     fill="white"
     d="M1140.62 695.62H1138.9L1140.83 688.77H1142.55L1140.62 695.62Z" />
  <path
     id="path456"
     fill="white"
     d="M1133.74 696.369H1136.75L1139.11 687.699H1136.11L1133.74 696.369Z" />
  <path
     id="path560"
     fill="#2B83FD"
     d="M928.253 503.148C928.253 506.059 925.907 508.43 923.027 508.43H782.333C779.453 508.43 777.107 506.059 777.107 503.148V463.476C777.107 460.565 779.453 458.193 782.333 458.193H923.027C925.907 458.193 928.253 460.565 928.253 463.476V503.148Z" />
  <path
     id="path562"
     fill="#2B83FD"
     d="M804.461 506.584L818.038 492.863L831.614 506.584L818.038 520.306L804.461 506.584Z" />
  <path
     id="path564"
     fill="#4E99FF"
     d="M928.253 500.453C928.253 503.363 925.907 505.735 923.027 505.735H782.333C779.453 505.735 777.107 503.363 777.107 500.453V460.78C777.107 457.87 779.453 455.498 782.333 455.498H923.027C925.907 455.498 928.253 457.87 928.253 460.78V500.453Z" />
  <path
     id="path566"
     fill="#4E99FF"
     d="M804.5 503.981L818.076 490.26L831.652 503.981L818.076 517.702L804.5 503.981Z" />
  <path
     id="path568"
     fill="white"
     d="M811.987 490.966C811.987 490.966 811.987 490.103 811.987 489.672C811.987 485.252 808.467 481.695 804.093 481.695C802.707 481.695 797.693 481.695 796.2 481.695C791.827 481.695 788.307 485.252 788.307 489.672C788.307 490.103 788.307 490.966 788.307 490.966H811.987Z" />
  <path
     id="path570"
     fill="white"
     d="M805.48 472.423C805.48 475.334 803.134 477.706 800.254 477.706C797.374 477.706 795.027 475.334 795.027 472.423C795.027 469.513 797.374 467.141 800.254 467.141C803.134 467.141 805.48 469.513 805.48 472.423Z" />
  <path
     id="path572"
     fill="#FF5931"
     d="M818.067 490.319C818.067 494.2 814.973 497.326 811.133 497.326C807.293 497.326 804.2 494.2 804.2 490.319C804.2 486.438 807.293 483.312 811.133 483.312C814.973 483.312 818.067 486.438 818.067 490.319Z" />
  <path
     id="path574"
     fill="#FF5931"
     d="M914.173 451.833C912.68 450.323 910.227 450.323 908.733 451.833L907.88 452.695L907.027 451.833C905.533 450.323 903.08 450.323 901.587 451.833C900.093 453.342 900.093 455.821 901.587 457.331L902.44 458.193L907.88 463.691L913.32 458.193L914.173 457.331C915.56 455.714 915.56 453.234 914.173 451.833Z" />
  <path
     id="path576"
     fill="white"
     d="M904.893 472.962H894.76C895.293 471.777 895.827 470.375 895.933 469.62C896.04 468.866 895.933 467.141 895.933 467.141C895.933 465.847 894.867 464.769 893.587 464.769H892.413V468.435C892.413 468.435 888.253 473.286 888.253 475.334V487.085C888.253 488.379 889.32 489.457 890.6 489.457H898.92C900.2 489.457 901.693 488.379 902.12 487.085L906.387 475.334C906.92 474.04 906.28 472.962 904.893 472.962Z" />
  <rect
     id="rect578"
     fill="white"
     height="13.1522"
     width="3.2"
     y="474.795"
     x="886.547" />
  <rect
     id="rect580"
     fill="white"
     height="16.4941"
     width="5.65333"
     y="472.962"
     x="878.547" />
  <path
     id="path582"
     fill="white"
     d="M834.6 465.416H858.493C859.773 465.416 860.733 466.386 860.733 467.68V486.546C860.733 487.839 859.773 488.81 858.493 488.81H841.32L836.093 494.092V488.81H834.6C833.32 488.81 832.36 487.839 832.36 486.546V467.68C832.36 466.386 833.32 465.416 834.6 465.416ZM836.84 481.263H856.253V479.754H836.84V481.263ZM856.253 477.49H836.84V475.981H856.253V477.49ZM836.84 473.717H856.253V472.208H836.84V473.717Z"
     clip-rule="evenodd"
     fill-rule="evenodd" />
  <defs
     id="defs844">
    <linearGradient
       gradientTransform="translate(-136.14268,-113.45223)"
       gradientUnits="userSpaceOnUse"
       y2="104.697"
       x2="1621.86"
       y1="746.069"
       x1="1375.68"
       id="paint0_linear">
      <stop
         id="stop764"
         stop-color="#6200EE" />
      <stop
         id="stop766"
         stop-color="#0700CF"
         offset="1" />
    </linearGradient>
    <linearGradient
       gradientUnits="userSpaceOnUse"
       y2="150.263"
       x2="879.046"
       y1="210.845"
       x1="882.961"
       id="paint1_linear">
      <stop
         id="stop769"
         stop-color="white" />
      <stop
         id="stop771"
         stop-color="white"
         offset="1" />
    </linearGradient>
    <linearGradient
       gradientUnits="userSpaceOnUse"
       y2="157.355"
       x2="845.086"
       y1="201.546"
       x1="877.03"
       id="paint2_linear">
      <stop
         id="stop774"
         stop-color="white" />
      <stop
         id="stop776"
         stop-color="white"
         offset="1" />
    </linearGradient>
    <linearGradient
       gradientUnits="userSpaceOnUse"
       y2="145.785"
       x2="877.68"
       y1="200.485"
       x1="901.318"
       id="paint3_linear">
      <stop
         id="stop779"
         stop-color="white" />
      <stop
         id="stop781"
         stop-color="white"
         offset="1" />
    </linearGradient>
    <linearGradient
       gradientUnits="userSpaceOnUse"
       y2="174.525"
       x2="885.338"
       y1="188.498"
       x1="915.275"
       id="paint4_linear">
      <stop
         id="stop784"
         stop-color="white" />
      <stop
         id="stop786"
         stop-color="white"
         offset="1" />
    </linearGradient>
    <linearGradient
       gradientUnits="userSpaceOnUse"
       y2="173.571"
       x2="909.461"
       y1="183.103"
       x1="935.897"
       id="paint5_linear">
      <stop
         id="stop789"
         stop-color="white" />
      <stop
         id="stop791"
         stop-color="white"
         offset="1" />
    </linearGradient>
    <linearGradient
       gradientUnits="userSpaceOnUse"
       y2="170.892"
       x2="934.602"
       y1="176.572"
       x1="956.63"
       id="paint6_linear">
      <stop
         id="stop794"
         stop-color="white" />
      <stop
         id="stop796"
         stop-color="white"
         offset="1" />
    </linearGradient>
    <linearGradient
       gradientUnits="userSpaceOnUse"
       y2="166.566"
       x2="950.388"
       y1="177.661"
       x1="978.208"
       id="paint7_linear">
      <stop
         id="stop799"
         stop-color="white" />
      <stop
         id="stop801"
         stop-color="white"
         offset="1" />
    </linearGradient>
    <linearGradient
       gradientUnits="userSpaceOnUse"
       y2="164.317"
       x2="973.411"
       y1="173.032"
       x1="999.043"
       id="paint8_linear">
      <stop
         id="stop804"
         stop-color="white" />
      <stop
         id="stop806"
         stop-color="white"
         offset="1" />
    </linearGradient>
    <linearGradient
       gradientUnits="userSpaceOnUse"
       y2="161.567"
       x2="1003.98"
       y1="164.058"
       x1="1019.56"
       id="paint9_linear">
      <stop
         id="stop809"
         stop-color="white" />
      <stop
         id="stop811"
         stop-color="white"
         offset="1" />
    </linearGradient>
    <linearGradient
       gradientUnits="userSpaceOnUse"
       y2="159.998"
       x2="1023.49"
       y1="163.246"
       x1="1040.58"
       id="paint10_linear">
      <stop
         id="stop814"
         stop-color="white" />
      <stop
         id="stop816"
         stop-color="white"
         offset="1" />
    </linearGradient>
    <linearGradient
       gradientUnits="userSpaceOnUse"
       y2="153.08"
       x2="1050.54"
       y1="154.259"
       x1="1062.25"
       id="paint11_linear">
      <stop
         id="stop819"
         stop-color="white" />
      <stop
         id="stop821"
         stop-color="white"
         offset="1" />
    </linearGradient>
    <linearGradient
       gradientUnits="userSpaceOnUse"
       y2="328.691"
       x2="1014.17"
       y1="9.90932"
       x1="1161.89"
       id="paint12_linear">
      <stop
         id="stop824"
         stop-color="#88EEBE" />
      <stop
         id="stop826"
         stop-color="#17ABFE"
         offset="1" />
    </linearGradient>
    <linearGradient
       gradientUnits="userSpaceOnUse"
       y2="558.808"
       x2="1268.52"
       y1="558.808"
       x1="1202.8"
       id="paint13_linear">
      <stop
         id="stop829"
         stop-color="#E04037" />
      <stop
         id="stop831"
         stop-color="#F95830"
         offset="1" />
    </linearGradient>
    <linearGradient
       gradientUnits="userSpaceOnUse"
       y2="243.833"
       x2="1023.33"
       y1="232.64"
       x1="1023.33"
       id="paint14_linear">
      <stop
         id="stop834"
         stop-color="#E04037" />
      <stop
         id="stop836"
         stop-color="#F95830"
         offset="1" />
    </linearGradient>
    <linearGradient
       gradientUnits="userSpaceOnUse"
       y2="217.036"
       x2="1016.69"
       y1="193.237"
       x1="1016.69"
       id="paint15_linear">
      <stop
         id="stop839"
         stop-color="#E04037" />
      <stop
         id="stop841"
         stop-color="#F95830"
         offset="1" />
    </linearGradient>
  </defs>
  <path
     id="path1675"
     d="m 1297.4562,277.39628 c -3.6941,-1.04611 -6.7655,-3.70658 -8.4211,-7.29448 -1.1719,-2.53962 -1.2921,-6.39817 -0.2828,-9.08327 2.4832,-6.60628 9.6323,-9.97125 16.0723,-7.56496 2.8647,1.07036 6.0723,4.29651 7.1691,7.21042 1.0552,2.80342 0.9163,7.2796 -0.305,9.82651 -2.5775,5.37501 -8.865,8.42578 -14.2325,6.90578 z m 2.9779,-7.42566 c 1.7656,-1.62796 7.3288,-8.84447 7.3288,-9.5068 0,-0.85771 -1.2126,-2.10613 -2.0386,-2.0989 -0.9283,0.008 -1.1913,0.25288 -3.9949,3.71722 -1.4203,1.75497 -2.6397,3.25899 -2.7098,3.34227 -0.07,0.0833 -0.5734,-0.27569 -1.1183,-0.79771 -1.8368,-1.75981 -4.3969,-0.89024 -3.8266,1.29975 0.2763,1.06086 4.064,4.84188 4.8505,4.84188 0.354,0 1.0331,-0.35897 1.5089,-0.79771 z"
     style="fill:#ffffff;fill-rule:evenodd;stroke-width:1;stroke:#ffffff;stroke-opacity:1;stroke-miterlimit:4;stroke-dasharray:none" />
  <path
     id="path1677"
     d="m 1215.1398,265.77758 c -0.7123,-0.4162 -0.8219,-1.75674 -0.195,-2.38364 0.3238,-0.32384 7.2202,-0.42545 28.8747,-0.42545 h 28.4493 l 0.5473,0.78127 c 0.4666,0.66626 0.4763,0.88807 0.065,1.50679 -0.4779,0.7198 -0.7047,0.72614 -28.8016,0.80455 -18.7989,0.0525 -28.5284,-0.0428 -28.9402,-0.28352 z"
     style="fill:#ffffff;fill-rule:evenodd;stroke-width:1;stroke:#ffffff;stroke-opacity:1;stroke-miterlimit:4;stroke-dasharray:none" />
  <path
     id="path1679"
     d="m 1215.0764,310.27402 c -0.8014,-0.80141 -0.6862,-1.82372 0.2767,-2.4546 0.7364,-0.4825 4.1143,-0.53521 28.9235,-0.45134 27.339,0.0924 28.1032,0.11335 28.5929,0.78316 0.6608,0.90385 0.6374,1.12746 -0.2059,1.97083 -0.6972,0.69718 -1.1818,0.70908 -28.8696,0.70908 -25.1277,0 -28.2204,-0.06 -28.7176,-0.55713 z"
     style="fill:#ffffff;fill-rule:evenodd;stroke-width:1;stroke:#ffffff;stroke-opacity:1;stroke-miterlimit:4;stroke-dasharray:none" />
  <path
     id="path1681"
     d="m 1297.5629,321.98124 c -2.7116,-0.73003 -3.9156,-1.44706 -5.9798,-3.56138 -4.1504,-4.25104 -4.6944,-10.6074 -1.3414,-15.67299 3.3026,-4.98954 9.8496,-6.88816 15.1689,-4.39896 2.7181,1.27196 4.8112,3.26182 6.1256,5.82354 1.3597,2.64985 1.5829,7.03946 0.5036,9.90189 -1.5445,4.09626 -4.564,6.84381 -8.6945,7.91141 -2.5339,0.65493 -3.3386,0.65444 -5.7824,-0.004 z m 1.6316,-8.12501 1.3608,-1.22938 1.1916,1.22938 c 1.3098,1.35143 2.2509,1.53807 3.2404,0.64262 0.978,-0.88506 0.7996,-2.23698 -0.4676,-3.54442 l -1.116,-1.15136 1.116,-1.27099 c 1.2217,-1.39146 1.423,-2.6613 0.5588,-3.52549 -0.8909,-0.89087 -2.0462,-0.65397 -3.3448,0.68583 l -1.2047,1.24296 -1.2729,-1.24296 c -1.5015,-1.46615 -2.878,-1.63521 -3.7047,-0.45499 -0.7945,1.13429 -0.7029,1.52468 0.7302,3.11093 l 1.2822,1.41918 -1.2996,1.43847 c -1.3728,1.51954 -1.4521,2.51097 -0.2748,3.43643 0.9198,0.72303 1.7637,0.51602 3.2051,-0.78621 z"
     style="fill:#ffffff;fill-rule:evenodd;stroke-width:1;stroke:#ffffff;stroke-opacity:1;stroke-miterlimit:4;stroke-dasharray:none" />
</svg>
