<svg width="22" height="22" viewBox="0 0 22 22" fill="none" xmlns="http://www.w3.org/2000/svg">
<path fill-rule="evenodd" clip-rule="evenodd" d="M14 4C14 1.791 15.791 0 18 0C20.209 0 22 1.791 22 4C22 6.857 18 11 18 11C18 11 14 6.857 14 4ZM2.01953 6C3.84608 3.57638 6.73832 2 10 2C10.777 2 11.5308 2.09858 12.2578 2.26758C12.0908 2.81658 12 3.397 12 4C12 4.762 12.1885 5.55494 12.4805 6.33594C12.1145 6.74094 11.589 7 11 7H9V10H7V12H13V16H16V17.2695C16.7657 16.3969 17.3508 15.3617 17.6816 14.2168L19.4395 12.3887C19.5565 12.2667 19.7522 12.058 19.9902 11.793C19.9907 11.8253 19.9929 11.8573 19.995 11.8895V11.8895V11.8895C19.9975 11.9261 20 11.9628 20 12C20 17.514 15.514 22 10 22C4.486 22 0 17.514 0 12C0 9.75917 0.750339 7.69458 2 6.02539V6H2.01953ZM18 2.57031C18.789 2.57031 19.4297 3.211 19.4297 4C19.4297 4.789 18.789 5.42969 18 5.42969C17.211 5.42969 16.5703 4.789 16.5703 4C16.5703 3.211 17.211 2.57031 18 2.57031ZM4 12L2.21094 10.2109C2.07795 10.7871 2 11.384 2 12C2 16.0715 5.0604 19.4369 9 19.9316V18H7V15L4 12Z" fill="black" fill-opacity="0.38"/>
</svg>
