<svg width="180" height="52" viewBox="0 0 180 52" fill="none" xmlns="http://www.w3.org/2000/svg">
<path fill-rule="evenodd" clip-rule="evenodd" d="M10.0559 0C4.50216 0 0 4.50216 0 10.0559V41.9441C0 47.4978 4.50216 52 10.0559 52H169.944C175.498 52 180 47.4978 180 41.9441V10.0559C180 4.50216 175.498 0 169.944 0H10.0559Z" fill="black"/>
<path fill-rule="evenodd" clip-rule="evenodd" d="M33.1625 16.8987C36.5561 16.8987 38.7262 20.1617 38.7262 20.1617C38.7262 20.1617 35.4158 21.9469 35.4158 25.8239C35.4158 30.4254 39.5744 31.764 39.5744 31.764C39.5744 31.764 36.292 39.5036 32.6064 39.5036C30.5339 39.5036 30.3954 38.3187 27.6413 38.3187C25.2495 38.3187 24.4429 39.5036 22.6209 39.5036C19.1433 39.5036 14.6511 31.9593 14.6511 25.8239C14.6511 19.4508 19.1993 16.8987 22.0504 16.8987C24.5541 16.8987 25.5968 18.3629 27.6133 18.3629C29.3104 18.3629 30.6459 16.8987 33.1625 16.8987ZM32.5791 10.3999C33.0793 13.5236 30.2282 17.387 26.821 17.2613C26.3201 13.2866 29.9921 10.6096 32.5791 10.3999Z" fill="white"/>
<path fill-rule="evenodd" clip-rule="evenodd" d="M115.263 19.9722C116.058 20.5463 116.523 21.4739 116.657 22.7552H118.917C118.884 21.7735 118.695 20.929 118.352 20.2218C118.009 19.5146 117.54 18.928 116.946 18.4621C116.351 17.9962 115.661 17.6551 114.874 17.4387C114.087 17.2224 113.233 17.1143 112.312 17.1143C111.491 17.1143 110.692 17.2183 109.913 17.4263C109.134 17.6343 108.44 17.9504 107.828 18.3747C107.217 18.7991 106.727 19.3399 106.359 19.9971C105.991 20.6544 105.807 21.4323 105.807 22.3309C105.807 23.1463 105.97 23.8243 106.296 24.3651C106.623 24.9059 107.058 25.3469 107.602 25.688C108.147 26.0291 108.762 26.3037 109.448 26.5117C110.135 26.7197 110.834 26.9027 111.546 27.0608C112.257 27.2189 112.956 27.3728 113.643 27.5226C114.329 27.6723 114.945 27.8679 115.489 28.1091C116.033 28.3504 116.468 28.6624 116.795 29.0451C117.121 29.4279 117.285 29.9271 117.285 30.5427C117.285 31.1917 117.151 31.7242 116.883 32.1402C116.615 32.5562 116.263 32.8848 115.828 33.1261C115.393 33.3674 114.903 33.5379 114.359 33.6378C113.814 33.7376 113.274 33.7875 112.739 33.7875C112.069 33.7875 111.416 33.7043 110.78 33.5379C110.143 33.3715 109.587 33.1136 109.109 32.7642C108.632 32.4147 108.247 31.9696 107.954 31.4288C107.661 30.888 107.514 30.2432 107.514 29.4944H105.254C105.254 30.576 105.451 31.512 105.844 32.3024C106.238 33.0928 106.774 33.7418 107.452 34.2493C108.13 34.7568 108.917 35.1354 109.813 35.385C110.708 35.6346 111.659 35.7594 112.663 35.7594C113.484 35.7594 114.308 35.6637 115.137 35.4723C115.966 35.281 116.715 34.9731 117.385 34.5488C118.055 34.1245 118.603 33.5754 119.03 32.9015C119.457 32.2275 119.671 31.4163 119.671 30.4679C119.671 29.5859 119.507 28.8538 119.181 28.2714C118.854 27.689 118.419 27.2064 117.875 26.8237C117.331 26.441 116.715 26.1373 116.029 25.9127C115.342 25.688 114.643 25.4925 113.932 25.3261C113.22 25.1597 112.521 25.0058 111.834 24.8643C111.148 24.7229 110.533 24.544 109.988 24.3277C109.444 24.1114 109.009 23.8327 108.682 23.4915C108.356 23.1504 108.193 22.7053 108.193 22.1562C108.193 21.5738 108.306 21.0871 108.532 20.696C108.758 20.305 109.059 19.993 109.436 19.76C109.813 19.5271 110.244 19.3607 110.729 19.2608C111.215 19.161 111.709 19.1111 112.211 19.1111C113.45 19.1111 114.467 19.3981 115.263 19.9722ZM58.1107 17.5386H60.748L67.7554 35.36H65.1182L63.1591 29.9936H55.574L53.5647 35.36H51.1284L58.1107 17.5386ZM62.4056 27.9968L59.4168 19.6851H59.3666L56.3275 27.9968H62.4056ZM71.3721 22.4557H69.2373V40.2771H71.3721V33.6378H71.4224C71.6568 34.0205 71.9456 34.3408 72.2889 34.5987C72.6321 34.8567 72.9963 35.0605 73.3814 35.2103C73.7666 35.36 74.1559 35.4682 74.5493 35.5347C74.9428 35.6013 75.2986 35.6346 75.6168 35.6346C76.6047 35.6346 77.4712 35.4599 78.2163 35.1104C78.9614 34.761 79.581 34.2826 80.0749 33.6752C80.5689 33.0679 80.9373 32.3565 81.18 31.5411C81.4228 30.7258 81.5442 29.8605 81.5442 28.9453C81.5442 28.0301 81.4187 27.1648 81.1675 26.3495C80.9163 25.5341 80.5438 24.8144 80.0498 24.1904C79.5559 23.5664 78.9363 23.0714 78.1912 22.7053C77.4461 22.3392 76.5712 22.1562 75.5666 22.1562C74.6624 22.1562 73.8335 22.3184 73.08 22.6429C72.3266 22.9674 71.774 23.4874 71.4224 24.2029H71.3721V22.4557ZM79.2838 28.7955C79.2838 28.1965 79.2042 27.6099 79.0452 27.0359C78.8861 26.4618 78.6433 25.9501 78.3168 25.5008C77.9903 25.0515 77.5717 24.6938 77.061 24.4275C76.5503 24.1613 75.9517 24.0282 75.2652 24.0282C74.5452 24.0282 73.934 24.1696 73.4317 24.4525C72.9293 24.7354 72.5191 25.1056 72.201 25.5632C71.8828 26.0208 71.6526 26.5408 71.5103 27.1232C71.368 27.7056 71.2968 28.2963 71.2968 28.8954C71.2968 29.5277 71.3721 30.1392 71.5228 30.7299C71.6735 31.3207 71.9121 31.8407 72.2386 32.2899C72.5652 32.7392 72.9879 33.1011 73.507 33.3757C74.0261 33.6503 74.654 33.7875 75.3907 33.7875C76.1275 33.7875 76.7428 33.6461 77.2368 33.3632C77.7307 33.0803 78.1284 32.7059 78.4298 32.24C78.7312 31.7741 78.9489 31.2416 79.0828 30.6426C79.2168 30.0435 79.2838 29.4279 79.2838 28.7955ZM86.2661 22.4557H84.1312V40.2771H86.2661V33.6378H86.3163C86.5507 34.0205 86.8396 34.3408 87.1828 34.5987C87.5261 34.8567 87.8903 35.0605 88.2754 35.2103C88.6605 35.36 89.0498 35.4682 89.4433 35.5347C89.8368 35.6013 90.1926 35.6346 90.5107 35.6346C91.4987 35.6346 92.3652 35.4599 93.1103 35.1104C93.8554 34.761 94.4749 34.2826 94.9689 33.6752C95.4628 33.0679 95.8312 32.3565 96.074 31.5411C96.3168 30.7258 96.4382 29.8605 96.4382 28.9453C96.4382 28.0301 96.3126 27.1648 96.0614 26.3495C95.8103 25.5341 95.4377 24.8144 94.9438 24.1904C94.4498 23.5664 93.8303 23.0714 93.0852 22.7053C92.34 22.3392 91.4652 22.1562 90.4605 22.1562C89.5563 22.1562 88.7275 22.3184 87.974 22.6429C87.2205 22.9674 86.668 23.4874 86.3163 24.2029H86.2661V22.4557ZM94.1777 28.7955C94.1777 28.1965 94.0982 27.6099 93.9391 27.0359C93.78 26.4618 93.5373 25.9501 93.2107 25.5008C92.8842 25.0515 92.4656 24.6938 91.9549 24.4275C91.4442 24.1613 90.8456 24.0282 90.1591 24.0282C89.4391 24.0282 88.828 24.1696 88.3256 24.4525C87.8233 24.7354 87.4131 25.1056 87.0949 25.5632C86.7768 26.0208 86.5466 26.5408 86.4042 27.1232C86.2619 27.7056 86.1907 28.2963 86.1907 28.8954C86.1907 29.5277 86.2661 30.1392 86.4168 30.7299C86.5675 31.3207 86.8061 31.8407 87.1326 32.2899C87.4591 32.7392 87.8819 33.1011 88.401 33.3757C88.92 33.6503 89.5479 33.7875 90.2847 33.7875C91.0214 33.7875 91.6368 33.6461 92.1307 33.3632C92.6247 33.0803 93.0224 32.7059 93.3238 32.24C93.6252 31.7741 93.8428 31.2416 93.9768 30.6426C94.1107 30.0435 94.1777 29.4279 94.1777 28.7955ZM125.171 22.4557H127.758V24.3277H125.171V32.3399C125.171 32.5895 125.192 32.7891 125.234 32.9389C125.276 33.0887 125.355 33.2051 125.473 33.2883C125.59 33.3715 125.753 33.4256 125.962 33.4506C126.172 33.4755 126.444 33.488 126.779 33.488H127.758V35.36H126.126C125.573 35.36 125.1 35.3226 124.707 35.2477C124.313 35.1728 123.995 35.0355 123.752 34.8359C123.509 34.6362 123.329 34.3533 123.212 33.9872C123.095 33.6211 123.036 33.1386 123.036 32.5395V24.3277H120.826V22.4557H123.036V18.5869H125.171V22.4557ZM131.99 31.0045C131.781 30.3971 131.676 29.7024 131.676 28.9203C131.676 28.1383 131.781 27.4435 131.99 26.8362C132.2 26.2288 132.488 25.7171 132.857 25.3011C133.225 24.8851 133.656 24.569 134.15 24.3527C134.644 24.1363 135.167 24.0282 135.72 24.0282C136.273 24.0282 136.796 24.1363 137.29 24.3527C137.784 24.569 138.215 24.8851 138.583 25.3011C138.952 25.7171 139.241 26.2288 139.45 26.8362C139.659 27.4435 139.764 28.1383 139.764 28.9203C139.764 29.7024 139.659 30.3971 139.45 31.0045C139.241 31.6119 138.952 32.1194 138.583 32.5271C138.215 32.9347 137.784 33.2467 137.29 33.4631C136.796 33.6794 136.273 33.7875 135.72 33.7875C135.167 33.7875 134.644 33.6794 134.15 33.4631C133.656 33.2467 133.225 32.9347 132.857 32.5271C132.488 32.1194 132.2 31.6119 131.99 31.0045ZM129.416 28.9203C129.416 27.9719 129.55 27.0858 129.818 26.2621C130.086 25.4384 130.487 24.7229 131.023 24.1155C131.559 23.5082 132.221 23.0298 133.007 22.6803C133.794 22.3309 134.699 22.1562 135.72 22.1562C136.758 22.1562 137.667 22.3309 138.445 22.6803C139.224 23.0298 139.881 23.5082 140.417 24.1155C140.953 24.7229 141.354 25.4384 141.622 26.2621C141.89 27.0858 142.024 27.9719 142.024 28.9203C142.024 29.8688 141.89 30.7507 141.622 31.5661C141.354 32.3815 140.953 33.0928 140.417 33.7002C139.881 34.3075 139.224 34.7818 138.445 35.1229C137.667 35.464 136.758 35.6346 135.72 35.6346C134.699 35.6346 133.794 35.464 133.007 35.1229C132.221 34.7818 131.559 34.3075 131.023 33.7002C130.487 33.0928 130.086 32.3815 129.818 31.5661C129.55 30.7507 129.416 29.8688 129.416 28.9203ZM146.47 22.4557H144.461V35.36H146.595V29.6192C146.595 28.7872 146.679 28.0509 146.847 27.4103C147.014 26.7696 147.282 26.2247 147.65 25.7754C148.019 25.3261 148.504 24.985 149.107 24.752C149.71 24.5191 150.438 24.4026 151.292 24.4026V22.1562C150.137 22.1229 149.182 22.3559 148.429 22.8551C147.675 23.3543 147.039 24.128 146.52 25.1763H146.47V22.4557ZM161.464 27.6723C161.431 27.1731 161.318 26.6989 161.125 26.2496C160.933 25.8003 160.673 25.4135 160.347 25.089C160.02 24.7645 159.635 24.5066 159.191 24.3152C158.747 24.1239 158.258 24.0282 157.722 24.0282C157.169 24.0282 156.671 24.1239 156.227 24.3152C155.784 24.5066 155.403 24.7687 155.085 25.1015C154.767 25.4343 154.515 25.8211 154.331 26.2621C154.147 26.7031 154.038 27.1731 154.005 27.6723H161.464ZM161.64 34.5363C162.611 33.8042 163.239 32.7143 163.524 31.2666H161.414C161.23 32.1152 160.849 32.7475 160.271 33.1635C159.694 33.5795 158.953 33.7875 158.048 33.7875C157.345 33.7875 156.734 33.6711 156.215 33.4381C155.696 33.2051 155.269 32.8931 154.934 32.5021C154.599 32.1111 154.356 31.6618 154.206 31.1543C154.055 30.6467 153.988 30.1101 154.005 29.5443H163.725C163.758 28.7623 163.687 27.9386 163.511 27.0733C163.335 26.208 163.017 25.4093 162.557 24.6771C162.096 23.945 161.485 23.3418 160.723 22.8675C159.961 22.3933 159.003 22.1562 157.847 22.1562C156.96 22.1562 156.144 22.3226 155.399 22.6554C154.654 22.9882 154.009 23.4541 153.465 24.0531C152.921 24.6522 152.498 25.3594 152.196 26.1747C151.895 26.9901 151.744 27.8887 151.744 28.8704C151.778 29.8522 151.924 30.7591 152.184 31.5911C152.443 32.4231 152.833 33.1386 153.352 33.7376C153.871 34.3367 154.511 34.8026 155.273 35.1354C156.035 35.4682 156.935 35.6346 157.973 35.6346C159.447 35.6346 160.669 35.2685 161.64 34.5363Z" fill="white"/>
</svg>
