<svg width="180" height="52" viewBox="0 0 180 52" fill="none" xmlns="http://www.w3.org/2000/svg">
<path fill-rule="evenodd" clip-rule="evenodd" d="M10.4651 0C4.6854 0 0 4.68539 0 10.4651V41.5349C0 47.3146 4.68539 52 10.4651 52H169.535C175.315 52 180 47.3146 180 41.5349V10.4651C180 4.68539 175.315 0 169.535 0H10.4651Z" fill="black"/>
<path fill-rule="evenodd" clip-rule="evenodd" d="M31.6519 21.4624L13.7398 11.7394C13.2319 11.4651 12.7635 11.4013 12.384 11.5181L27.0557 26.0007L31.6519 21.4624Z" fill="url(#paint0_linear)"/>
<path fill-rule="evenodd" clip-rule="evenodd" d="M31.6753 30.5619L37.7901 27.2427C39.0301 26.5672 39.0301 25.4683 37.7901 24.7945L31.6527 21.4629L27.0557 26.0012L31.6753 30.5619Z" fill="url(#paint1_linear)"/>
<path fill-rule="evenodd" clip-rule="evenodd" d="M12.3832 11.5186C11.8384 11.6868 11.4858 12.2313 11.4858 13.0551L11.4892 38.9821C11.4892 39.7968 11.8309 40.333 12.3597 40.512L27.0557 26.0037L12.3832 11.5186Z" fill="url(#paint2_linear)"/>
<path fill-rule="evenodd" clip-rule="evenodd" d="M12.3596 40.5117C12.7416 40.6394 13.2193 40.5797 13.7397 40.2979L31.6728 30.5616L27.0556 26.0034L12.3596 40.5117Z" fill="url(#paint3_linear)"/>
<mask id="mask0" mask-type="alpha" maskUnits="userSpaceOnUse" x="12" y="26" width="20" height="15">
<path fill-rule="evenodd" clip-rule="evenodd" d="M12.3596 40.5117C12.7416 40.6394 13.2193 40.5797 13.7397 40.2979L31.6728 30.5616L27.0556 26.0034L12.3596 40.5117Z" fill="white"/>
</mask>
<g mask="url(#mask0)">
</g>
<path fill-rule="evenodd" clip-rule="evenodd" d="M107.87 32.1412C107.045 32.0641 106.871 31.9115 106.871 30.9309L106.877 16.6146C106.977 15.7312 107.21 15.4552 107.988 15.0019H104.397L102.517 15.913H104.47L104.48 30.9212V31.4844C104.48 31.9402 104.399 32.0457 103.954 32.621C103.907 32.6821 103.856 32.7485 103.8 32.8211H108.224L109.153 32.2653C108.939 32.2397 108.724 32.2213 108.508 32.2028L108.508 32.2028L108.508 32.2027C108.296 32.1846 108.083 32.1664 107.87 32.1412ZM118.01 32.2653L119.211 31.1261C119.327 31.0094 119.164 31.0947 119.164 31.0947C118.352 31.4979 117.468 31.8891 116.276 31.8891C113.89 31.8891 111.731 30.0228 111.106 26.8138L113.038 26.6627L118.94 24.2653L118.934 24.2451C118.752 23.66 118.421 22.5914 117.181 21.7669C116.427 21.2875 115.499 21.0601 114.596 21.0601C112.012 21.0601 108.843 22.9795 108.843 26.8931C108.843 28.7833 109.622 30.9526 111.404 32.2145C112.686 33.1472 113.944 33.1996 114.746 33.1996C115.499 33.1996 116.347 33.1039 117.181 32.7231C117.365 32.6388 117.549 32.5316 117.733 32.424L117.733 32.4239C117.825 32.3702 117.918 32.3164 118.01 32.2653ZM116.379 24.0656C116.379 24.4172 116.129 24.5683 115.65 24.7433L111.08 26.7375C111.072 26.5825 111.06 26.4275 111.049 26.2736L111.048 26.2735L111.048 26.2733L111.048 26.2732L111.048 26.2731L111.048 26.2729L111.048 26.2728L111.048 26.2727V26.2726L111.048 26.2725C111.026 25.9767 111.004 25.685 111.004 25.4053C111.004 22.678 112.887 21.8926 113.89 21.8926C115.244 21.8926 116.379 23.0573 116.379 24.0656ZM100.01 22.2988C100.586 22.7753 101.789 23.7866 101.789 25.7045C101.789 27.5738 100.741 28.4549 99.6839 29.289L99.6388 29.3345C99.3254 29.6505 98.9801 29.9987 98.9801 30.524C98.9801 31.0722 99.3454 31.3742 99.6171 31.5988L99.6326 31.6116L100.539 32.3155C101.642 33.2512 102.647 34.1092 102.647 35.8521C102.647 38.2263 100.362 40.6207 96.0431 40.6207C92.4052 40.6207 90.6466 38.8785 90.6466 37.0107C90.6466 36.1019 91.0966 34.8146 92.5815 33.9327C94.1173 32.9886 96.1905 32.8516 97.3301 32.7762L97.3755 32.7732L97.3229 32.7053C96.9841 32.2674 96.6204 31.7974 96.6204 31.0536C96.6204 30.6707 96.7228 30.4263 96.8328 30.1636C96.8458 30.1327 96.8588 30.1016 96.8718 30.0699L96.8542 30.0716C96.5855 30.0972 96.3152 30.123 96.0691 30.123C93.4066 30.123 91.9016 28.1258 91.9016 26.1578C91.9016 24.9969 92.4283 23.7088 93.51 22.7753C94.9413 21.5904 96.6479 21.3862 98.0041 21.3862H103.177L101.569 22.2988H100.01ZM97.653 33.4779C97.9014 33.4779 98.0249 33.4779 98.231 33.5048C100.135 34.8699 100.963 35.5491 100.963 36.8365C100.963 38.4006 99.6839 39.5622 97.2735 39.5622C94.5909 39.5622 92.8568 38.2719 92.8568 36.4827C92.8568 34.6897 94.463 34.086 95.0187 33.8818C96.0691 33.5272 97.4253 33.4779 97.653 33.4779ZM99.5835 26.8639C99.5835 27.321 99.5329 28.1258 98.9526 28.7085C98.5554 29.108 97.8784 29.4154 97.249 29.4154C95.0923 29.4154 94.1118 26.6118 94.1118 24.9213C94.1118 24.2653 94.239 23.5831 94.6638 23.0573C95.0641 22.5494 95.7693 22.221 96.4203 22.221C98.507 22.221 99.5835 25.0485 99.5835 26.8639ZM78.3195 27.1938C78.3195 30.0228 80.4546 33.1472 84.4451 33.1472C88.539 33.1472 90.8236 29.9951 90.8236 27.0158C90.8236 23.9654 88.5122 21.0601 84.8215 21.0601C81.0036 21.0601 78.3195 23.8883 78.3195 27.1938ZM87.5845 31.1052C88.1916 30.2973 88.3389 29.289 88.3389 28.3061C88.3389 26.083 87.2854 21.8432 84.1721 21.8432C83.3441 21.8432 82.5101 22.1686 81.909 22.6997C80.9285 23.5831 80.7537 24.6932 80.7537 25.7823C80.7537 28.2762 81.9797 32.3895 85.0224 32.3895C86.0044 32.3895 87.0065 31.9115 87.5845 31.1052ZM71.0847 33.1472C67.0935 33.1472 64.9621 30.0228 64.9621 27.1938C64.9621 23.8883 67.647 21.0601 71.4634 21.0601C75.1518 21.0601 77.461 23.9654 77.461 27.0158C77.461 29.9951 75.1794 33.1472 71.0847 33.1472ZM74.9777 28.3061C74.9777 29.289 74.8275 30.2973 74.2249 31.1052C73.6454 31.9115 72.6448 32.3895 71.665 32.3895C68.6275 32.3895 67.3963 28.2762 67.3963 25.7823C67.3963 24.6932 67.5704 23.5831 68.5524 22.6997C69.1549 22.1686 69.98 21.8432 70.811 21.8432C73.9214 21.8432 74.9777 26.083 74.9777 28.3061ZM60.0008 33.0463L63.3664 32.2713V29.3862C63.3664 29.1454 63.3894 28.4602 63.414 28.2448C63.4601 28.0563 63.4824 28.0084 63.6468 27.8678L64.2569 27.2776H59.2695L57.3859 28.2949L60.9396 28.1026V31.9175C60.2351 32.2018 59.4592 32.5062 57.952 32.5062C52.8225 32.5062 49.6244 28.3203 49.6244 23.8704C49.6244 19.7271 52.4253 16.8891 56.1383 16.8891C58.9094 16.8891 60.3724 18.3258 61.1695 19.1086L61.1747 19.1137L60.587 20.0555L61.4113 19.87L63.3664 18.0029L63.2932 17.9517C62.773 17.5869 61.9447 17.0061 60.2619 16.5308C59.149 16.2256 57.9274 16.0379 56.6575 16.0379C50.6555 16.0379 47.1508 20.2956 47.1508 24.8877C47.1508 28.6479 49.6244 33.4524 56.116 33.4524C57.4126 33.4524 58.6372 33.2624 60.0008 33.0463ZM126.447 31.2338V37.663H125.177V21.3032H126.447V23.1665C127.274 21.9622 128.786 21.0077 130.542 21.0077C133.691 21.0077 135.812 23.4096 135.812 27.2117C135.812 30.9885 133.691 33.4405 130.542 33.4405C128.884 33.4405 127.399 32.581 126.447 31.2338ZM130.327 22.1604C132.962 22.1604 134.447 24.3461 134.447 27.2117C134.447 30.0819 132.962 32.2863 130.327 32.2863C128.692 32.2863 127.127 30.9466 126.447 29.8171V24.5802C127.127 23.453 128.692 22.1604 130.327 22.1604ZM138.815 16.7859H137.546V33.1458H138.815V16.7859ZM153.064 36.6053C153.336 36.7273 153.799 36.8021 154.093 36.8021C154.87 36.8021 155.411 36.4827 155.897 35.3546L156.823 33.2445L151.821 21.3032H153.237L157.528 31.6512L161.777 21.3032H163.214L157.113 35.7503C156.48 37.2389 155.484 37.9547 154.116 37.9547C153.705 37.9547 153.163 37.8814 152.846 37.7834L153.064 36.6053ZM149.159 32.0357C149.206 32.3379 149.27 32.6999 149.355 33.1106H150.818C150.705 32.7284 150.619 32.3334 150.566 31.9377C150.513 31.5428 150.493 31.1373 150.493 30.7177V24.8757C150.493 23.625 150.07 22.6683 149.226 22.0063C148.382 21.3376 147.262 21.0025 145.877 21.0025C144.488 21.0025 143.36 21.3428 142.498 22.0198C141.633 22.6975 141.226 23.4821 141.273 24.3768L141.3 24.4403H142.599C142.599 23.7769 142.895 23.2263 143.481 22.782C144.072 22.3466 144.849 22.123 145.807 22.123C146.854 22.123 147.662 22.3676 148.238 22.8516C148.811 23.3348 149.098 24.0013 149.098 24.8488V26.3201H146.137C144.549 26.3201 143.267 26.6492 142.274 27.3112C141.282 27.9702 140.784 28.8319 140.784 29.8934C140.784 30.9563 141.128 31.7963 141.811 32.4164C142.496 33.0373 143.456 33.3432 144.694 33.3432C145.721 33.3432 146.47 33.1353 147.259 32.7112C148.047 32.29 148.663 31.7552 149.098 31.1126C149.098 31.4261 149.121 31.7342 149.159 32.0357ZM144.849 32.1801C145.928 32.1801 146.703 31.9377 147.495 31.4582C148.282 30.9817 148.818 30.3601 149.098 29.6076V27.3337H146.123C144.986 27.3337 144.045 27.5865 143.305 28.0966C142.563 28.6053 142.187 29.2209 142.187 29.9368C142.187 30.6122 142.425 31.1523 142.898 31.5615C143.373 31.9751 144.022 32.1801 144.849 32.1801Z" fill="white"/>
<defs>
<linearGradient id="paint0_linear" x1="3.68804" y1="9.99208" x2="9.5125" y2="29.8257" gradientUnits="userSpaceOnUse">
<stop stop-color="#19A3B4"/>
<stop offset="0.348168" stop-color="#5BC3AF"/>
<stop offset="0.922336" stop-color="#C8F7A6"/>
<stop offset="1" stop-color="#D7FEA5"/>
</linearGradient>
<linearGradient id="paint1_linear" x1="12.0159" y1="15.1345" x2="18.7209" y2="37.0669" gradientUnits="userSpaceOnUse">
<stop stop-color="#FC227C"/>
<stop offset="1" stop-color="#FEEB7B"/>
</linearGradient>
<linearGradient id="paint2_linear" x1="8.26241" y1="10.1282" x2="18.1005" y2="35.8916" gradientUnits="userSpaceOnUse">
<stop stop-color="#0E4DA0"/>
<stop offset="1" stop-color="#6BFED4"/>
</linearGradient>
<linearGradient id="paint3_linear" x1="27.293" y1="19.2015" x2="8.89727" y2="40.4079" gradientUnits="userSpaceOnUse">
<stop stop-color="#FC472E"/>
<stop offset="0.00331892" stop-color="#FC472F"/>
<stop offset="1" stop-color="#893CD8"/>
</linearGradient>
</defs>
</svg>
