<svg width="18" height="18" viewBox="0 0 18 18" fill="none" xmlns="http://www.w3.org/2000/svg">
<path fill-rule="evenodd" clip-rule="evenodd" d="M0 2C0 0.897 0.897 0 2 0H16C17.103 0 18 0.897 18 2V16C18 17.103 17.103 18 16 18H11.4141H8.62109H2C0.897 18 0 17.103 0 16V2ZM16 2H2V16H8.62109V12.0391H6.27734V9.31445H8.62109V7.30859C8.62109 4.98459 10.0412 3.71875 12.1152 3.71875C12.8142 3.71675 13.512 3.75127 14.207 3.82227V6.25391H12.7793C11.6493 6.25391 11.4297 6.78622 11.4297 7.57422V9.31055H14.1309L13.7793 12.0352H11.4141V16H16.002L16 2Z" fill="black" fill-opacity="0.6"/>
</svg>
