<svg width="48" height="44" viewBox="0 0 48 44" fill="none" xmlns="http://www.w3.org/2000/svg">
<path d="M24 0C13.4245 0 4.8 8.62455 4.8 19.2V21.6H0V36H9.6V24V21.6V19.2C9.6 11.2187 16.0187 4.8 24 4.8C31.9813 4.8 38.4 11.2187 38.4 19.2V21.6V24V36V38.4H28.5891C28.0811 36.9634 26.7238 36.0021 25.2 36C24.2452 36 23.3295 36.3793 22.6544 37.0544C21.9793 37.7295 21.6 38.6452 21.6 39.6C21.6025 41.4863 23.0607 43.0509 24.9422 43.1859C25.0278 43.1952 25.1139 43.1999 25.2 43.2H43.2V36H48V21.6H43.2V19.2C43.2 8.62455 34.5755 0 24 0Z" fill="#00C4AA"/>
</svg>
