<svg width="18" height="18" viewBox="0 0 18 18" fill="none" xmlns="http://www.w3.org/2000/svg">
<path fill-rule="evenodd" clip-rule="evenodd" d="M5 0C2.243 0 0 2.243 0 5V13C0 15.757 2.243 18 5 18H13C15.757 18 18 15.757 18 13V5C18 2.243 15.757 0 13 0H5ZM5 2H13C14.654 2 16 3.346 16 5V13C16 14.654 14.654 16 13 16H5C3.346 16 2 14.654 2 13V5C2 3.346 3.346 2 5 2ZM13 4C13 3.44772 13.4477 3 14 3C14.5523 3 15 3.44772 15 4C15 4.55228 14.5523 5 14 5C13.4477 5 13 4.55228 13 4ZM9 4C6.243 4 4 6.243 4 9C4 11.757 6.243 14 9 14C11.757 14 14 11.757 14 9C14 6.243 11.757 4 9 4ZM12 9C12 7.346 10.654 6 9 6C7.346 6 6 7.346 6 9C6 10.654 7.346 12 9 12C10.654 12 12 10.654 12 9Z" fill="black" fill-opacity="0.6"/>
</svg>
