<svg width="56" height="64" viewBox="0 0 56 64" fill="none" xmlns="http://www.w3.org/2000/svg">
<path d="M42.4314 0.813477L40.6571 1.17806C40.6571 1.17806 33.8861 2.58267 25.8854 5.86903C17.8847 9.1554 8.43942 14.2656 2.96528 22.4636L2.91667 22.5305L2.87413 22.5973C0.364666 26.8137 0 30.8658 0 33.9723C0 39.9061 2.79075 44.9251 6.39844 48.3916C7.93424 49.8673 9.62617 51.038 11.375 51.9706C8.43887 54.1659 5.28829 56.0034 1.9566 57.336L4.26562 63.1086C20.9888 56.4194 33.1206 40.0895 37.224 23.5999L31.184 22.0991C28.9242 31.1803 23.7259 40.3744 16.6554 47.4133C14.8091 46.8673 12.5718 45.6936 10.7127 43.9072C8.09814 41.395 6.22222 37.9537 6.22222 33.9723C6.22222 31.3019 6.45337 28.8228 8.20312 25.8482C12.4669 19.5224 20.839 14.6672 28.2491 11.6234C34.6828 8.98069 38.6955 8.17278 40.0738 7.86209C46.7892 16.3081 49.6821 26.6889 49.7717 33.4376C49.8653 40.4319 48.0571 45.4935 45.3663 48.8109C42.6856 52.1159 39.1158 53.8121 34.9757 53.988C33.1247 53.9646 31.0132 54.0485 27.9453 51.6911L24.1536 56.6251C28.7028 60.1207 33.3204 60.1958 35.0122 60.2223H35.0972H35.1823C40.981 59.9923 46.4152 57.3927 50.197 52.7301C53.9789 48.0676 56.1025 41.475 55.9939 33.3586C55.8775 24.5879 52.4535 12.1942 43.6285 2.16851L42.4314 0.813477Z" fill="white"/>
</svg>
