<svg width="56" height="56" viewBox="0 0 56 56" fill="none" xmlns="http://www.w3.org/2000/svg">
<path fill-rule="evenodd" clip-rule="evenodd" d="M45.905 1.65818C47.0112 0.552006 48.3949 0 49.7777 0C51.1604 0 52.5442 0.552006 53.6504 1.65818C55.8627 3.87052 55.8627 7.1912 53.6504 9.40355L51.7113 11.3372C50.6051 12.4434 50.6062 14.1048 51.4358 14.9344C52.542 16.0406 52.542 17.7009 51.4358 18.8071L49.2753 20.9676C50.5775 25.2558 49.5907 30.0936 46.202 33.4823L26.7846 52.8943L26.7252 52.9483C23.248 56.0392 17.9088 56.1118 14.6372 52.8403L2.46825 40.6713C-0.803301 37.3997 -0.730622 32.0605 2.36023 28.5833L2.41424 28.5239L21.8263 9.10648C24.2742 6.65854 27.4846 5.43364 30.6951 5.43364C31.7815 5.43364 32.8574 5.6285 33.9142 5.90895L36.226 3.59722C37.3321 2.49105 38.9925 2.49105 40.0987 3.59722C41.2048 4.70339 42.8652 4.70339 43.9713 3.59722L45.905 1.65818ZM35.6534 13.017C34.2298 11.5933 32.4623 10.8835 30.6951 10.8835C28.9279 10.8835 27.1604 11.5933 25.7368 13.017L6.49217 32.2562C6.49062 32.258 6.49004 32.2598 6.48946 32.2616C6.48889 32.2634 6.48832 32.2652 6.48677 32.267C5.16258 33.7657 5.2283 35.6104 6.37875 36.7608L18.5477 48.9298C19.6982 50.0802 21.5429 50.1459 23.0416 48.8218L23.6033 48.2546L17.1272 41.7785L21.0377 37.8681L27.5138 44.3441L30.3818 41.4815L23.7653 34.865L27.6758 30.9545L34.2923 37.571L37.128 34.7353L30.4304 28.2593L34.2761 24.284L41.0385 30.8248L42.2916 29.5718C45.1389 26.7244 45.1389 22.5024 42.2916 19.6551L35.6534 13.017Z" fill="white"/>
</svg>
