<svg width="64" height="58" viewBox="0 0 64 58" fill="none" xmlns="http://www.w3.org/2000/svg">
<path d="M24 9.6V3.2H40V9.6H43.2V3.2C43.2 1.4336 41.7664 0 40 0H24C22.2336 0 20.8 1.4336 20.8 3.2V9.6H24Z" fill="#455A64"/>
<path d="M64 49.6001C64 54.0193 60.4192 57.6001 56 57.6001H8C3.5808 57.6001 0 54.0193 0 49.6001V17.6001C0 13.1809 3.5808 9.6001 8 9.6001H56C60.4192 9.6001 64 13.1809 64 17.6001V49.6001Z" fill="#00C4AA"/>
<path d="M32 49.6001C40.8366 49.6001 48 42.4367 48 33.6001C48 24.7635 40.8366 17.6001 32 17.6001C23.1634 17.6001 16 24.7635 16 33.6001C16 42.4367 23.1634 49.6001 32 49.6001Z" fill="white"/>
<path d="M28.7998 24H35.1998V43.2H28.7998V24Z" fill="#00C4AA"/>
<path d="M22.3999 30.3999H41.5999V36.7999H22.3999V30.3999Z" fill="#00C4AA"/>
</svg>
