<svg width="22" height="20" viewBox="0 0 22 20" fill="none" xmlns="http://www.w3.org/2000/svg">
<path fill-rule="evenodd" clip-rule="evenodd" d="M2 0C0.9 0 0 0.9 0 2V14C0 15.1 0.9 16 2 16H8.26172C8.09672 15.36 8 14.692 8 14H2V4H18V6.26172C18.71 6.44472 19.381 6.71912 20 7.07812V4C20 2.9 19.1 2 18 2H10L8 0H2ZM16 8C12.686 8 10 10.686 10 14C10 17.314 12.686 20 16 20H19V18.5H16C13.515 18.5 11.5 16.485 11.5 14C11.5 11.515 13.515 9.5 16 9.5C18.485 9.5 20.5 11.515 20.5 14V14.75C20.5 15.164 20.164 15.5 19.75 15.5C19.336 15.5 19 15.164 19 14.75V14C19 12.343 17.657 11 16 11C14.343 11 13 12.343 13 14C13 15.657 14.343 17 16 17C16.789 17 17.4992 16.6884 18.0352 16.1914C18.4482 16.6814 19.059 17 19.75 17C20.993 17 22 15.993 22 14.75V14C22 10.686 19.314 8 16 8ZM17.5 14C17.5 13.172 16.828 12.5 16 12.5C15.172 12.5 14.5 13.172 14.5 14C14.5 14.828 15.172 15.5 16 15.5C16.828 15.5 17.5 14.828 17.5 14Z" fill="black" fill-opacity="0.38"/>
</svg>
