<svg width="20" height="19" viewBox="0 0 20 19" fill="none" xmlns="http://www.w3.org/2000/svg">
<path fill-rule="evenodd" clip-rule="evenodd" d="M4 0V3.49219L0.992188 5.24609C0.380188 5.60309 0 6.26561 0 6.97461V17C0 18.103 0.897 19 2 19H18C19.103 19 20 18.103 20 17V6.97461C20 6.26561 19.6198 5.60309 19.0078 5.24609L16 3.49219V0H4ZM6 2H14V9.33398L10 11.8223L6 9.33203V2ZM4 8.08789V5.80664L2.10742 6.91016L4 8.08789ZM16 5.80859L17.8926 6.91211L16 8.08984V5.80859ZM18.002 17L18 9.19922L10 14.1777L2 9.19922V17H18.002Z" fill="black" fill-opacity="0.6"/>
</svg>
