<svg width="114" height="18" viewBox="0 0 114 18" fill="none" xmlns="http://www.w3.org/2000/svg">
<path d="M11.2246 13.2354H4.06489L2.70223 17H0.438823L6.46687 1.01759H8.84576L14.8507 17H12.5873L11.2246 13.2354ZM10.6241 11.5955L7.64477 3.37338L4.66539 11.5955H10.6241ZM19.0798 2.42644V7.99257H25.2695V9.60929H19.0798V15.2909H25.9624V17H16.9781V0.71734H25.9624V2.42644H19.0798ZM38.9622 12.7734C38.9622 13.5433 38.7774 14.2593 38.4079 14.9214C38.0383 15.5834 37.4763 16.1224 36.7219 16.5381C35.9674 16.9538 35.0359 17.1617 33.9273 17.1617C32.8494 17.1617 31.8871 16.9692 31.0403 16.5843C30.2088 16.1839 29.539 15.645 29.0309 14.9676C28.5382 14.2747 28.2533 13.4894 28.1764 12.6118H30.4167C30.4629 13.0737 30.6168 13.5279 30.8786 13.9744C31.1557 14.4056 31.5407 14.7674 32.0334 15.0599C32.5415 15.3371 33.1497 15.4757 33.858 15.4757C34.7818 15.4757 35.4901 15.2293 35.9828 14.7366C36.4755 14.2439 36.7219 13.6126 36.7219 12.8427C36.7219 12.1806 36.5448 11.6417 36.1907 11.226C35.8519 10.8103 35.4285 10.4869 34.9204 10.256C34.4123 10.0096 33.7194 9.74786 32.8417 9.47071C31.8101 9.13197 30.9787 8.81633 30.3474 8.52378C29.7315 8.21583 29.2003 7.76161 28.7538 7.16112C28.3226 6.56062 28.1071 5.76766 28.1071 4.78223C28.1071 3.93538 28.3072 3.18861 28.7076 2.54192C29.1233 1.89523 29.7084 1.39482 30.4629 1.04068C31.2327 0.686545 32.1335 0.509476 33.1651 0.509476C34.7664 0.509476 36.0367 0.902108 36.9759 1.68737C37.9152 2.45724 38.4618 3.44266 38.6157 4.64366H36.3523C36.2292 3.99697 35.8981 3.42727 35.3592 2.93455C34.8203 2.44184 34.0889 2.19548 33.1651 2.19548C32.3182 2.19548 31.6408 2.41874 31.1326 2.86527C30.6245 3.29639 30.3705 3.91228 30.3705 4.71294C30.3705 5.34423 30.5322 5.86004 30.8555 6.26037C31.1942 6.64531 31.61 6.95325 32.1027 7.18421C32.5954 7.39977 33.2729 7.64613 34.1351 7.92328C35.1821 8.26202 36.0213 8.58537 36.6526 8.89331C37.2993 9.20126 37.8459 9.67088 38.2924 10.3022C38.7389 10.9181 38.9622 11.7418 38.9622 12.7734ZM51.7656 0.71734V2.42644H47.1695V17H45.0678V2.42644H40.4717V0.71734H51.7656ZM66.3498 0.71734V17H64.225V9.47071H55.9567V17H53.8549V0.71734H55.9567V7.76161H64.225V0.71734H66.3498ZM71.8126 2.42644V7.99257H78.0023V9.60929H71.8126V15.2909H78.6952V17H69.7109V0.71734H78.6952V2.42644H71.8126ZM91.3716 0.71734V2.42644H86.7755V17H84.6738V2.42644H80.0777V0.71734H91.3716ZM95.5626 0.71734V17H93.4609V0.71734H95.5626ZM106.148 0.555669C108.134 0.555669 109.774 1.04838 111.067 2.03381C112.36 3.00384 113.253 4.33571 113.746 6.02941H111.529C111.113 4.9516 110.443 4.09705 109.52 3.46576C108.596 2.81907 107.464 2.49573 106.125 2.49573C105.062 2.49573 104.107 2.75748 103.261 3.28099C102.429 3.7891 101.767 4.52818 101.274 5.49821C100.797 6.45284 100.558 7.57684 100.558 8.87022C100.558 10.1482 100.797 11.2645 101.274 12.2191C101.767 13.1738 102.429 13.9128 103.261 14.4363C104.107 14.9445 105.062 15.1985 106.125 15.1985C107.464 15.1985 108.596 14.8829 109.52 14.2516C110.443 13.6049 111.113 12.7426 111.529 11.6648H113.746C113.253 13.3585 112.36 14.6981 111.067 15.6835C109.774 16.6536 108.134 17.1386 106.148 17.1386C104.623 17.1386 103.276 16.7921 102.106 16.0993C100.936 15.391 100.02 14.4133 99.3574 13.1661C98.7107 11.9035 98.3874 10.4715 98.3874 8.87022C98.3874 7.2535 98.7107 5.81385 99.3574 4.55127C100.02 3.28869 100.936 2.31096 102.106 1.61808C103.276 0.909807 104.623 0.555669 106.148 0.555669Z" fill="white"/>
</svg>
