<svg width="20" height="20" viewBox="0 0 20 20" fill="none" xmlns="http://www.w3.org/2000/svg">
<path fill-rule="evenodd" clip-rule="evenodd" d="M10.0117 0C4.50572 0 0.0234844 4.47837 0.0214844 9.98438C0.0204844 11.7444 0.481469 13.4626 1.35547 14.9766L0 20L5.23242 18.7637C6.69142 19.5597 8.33386 19.9775 10.0059 19.9785H10.0098C15.5148 19.9785 19.995 15.4991 19.998 9.99414C20 7.32514 18.9622 4.81573 17.0762 2.92773C15.1902 1.04073 12.6837 0.001 10.0117 0ZM10.0098 2C12.1458 2.001 14.1531 2.8338 15.6621 4.3418C17.1711 5.8518 18 7.85819 17.998 9.99219C17.996 14.3962 14.4138 17.9785 10.0078 17.9785C8.67481 17.9775 7.35441 17.6428 6.19141 17.0078L5.51758 16.6406L4.77344 16.8164L2.80469 17.2812L3.28516 15.4961L3.50195 14.6953L3.08789 13.9766C2.38989 12.7686 2.02048 11.3874 2.02148 9.98438C2.02348 5.58238 5.60677 2 10.0098 2ZM5.81055 5.6875C6.03955 5.4375 6.30956 5.375 6.47656 5.375H6.48772C6.64997 5.375 6.81137 5.37499 6.95312 5.38086C7.13112 5.38786 7.32863 5.3975 7.51562 5.8125C7.64422 6.09866 7.86125 6.63265 8.03316 7.05562C8.15801 7.36283 8.25907 7.61147 8.28516 7.66406C8.34716 7.78906 8.38964 7.93556 8.30664 8.10156C8.29536 8.12412 8.28482 8.14554 8.27471 8.16607C8.21046 8.29661 8.16379 8.39142 8.05664 8.51758C8.01362 8.56783 7.96929 8.62205 7.92508 8.67611C7.84084 8.77914 7.75705 8.88163 7.68359 8.95508C7.55859 9.07908 7.42727 9.21584 7.57227 9.46484C7.71827 9.71484 8.21894 10.5304 8.96094 11.1914C9.75715 11.9008 10.4488 12.2022 10.8011 12.3558C10.8709 12.3862 10.9274 12.4108 10.9688 12.4316C11.2188 12.5566 11.3638 12.5342 11.5098 12.3672C11.6558 12.2012 12.1328 11.6406 12.2988 11.3906C12.4648 11.1406 12.6323 11.1826 12.8613 11.2656C13.0903 11.3486 14.3174 11.9512 14.5664 12.0762C14.6158 12.1009 14.6619 12.1231 14.7046 12.1437C14.8781 12.2273 14.9952 12.2837 15.0449 12.3672C15.1069 12.4702 15.1064 12.9717 14.8984 13.5547C14.6904 14.1377 13.6709 14.6992 13.2129 14.7402C13.1693 14.7442 13.126 14.7493 13.0814 14.7546C12.6581 14.8044 12.1261 14.8671 10.2188 14.1152C7.87084 13.1898 6.32317 10.8942 6.00722 10.4256C5.98178 10.3879 5.96432 10.362 5.95508 10.3496L5.95265 10.3464C5.81893 10.1678 4.93555 8.98791 4.93555 7.76758C4.93555 6.61765 5.50202 6.01571 5.76209 5.73935C5.77974 5.72059 5.79599 5.70333 5.81055 5.6875Z" fill="black" fill-opacity="0.6"/>
</svg>
